<mxfile host="app.diagrams.net" modified="2023-07-30T12:53:48.298Z" agent="Mozilla/5.0 (Macintosh; Intel Mac OS X 10_15_7) AppleWebKit/537.36 (KHTML, like Gecko) Chrome/114.0.0.0 Safari/537.36" version="21.6.6" etag="dhsC6u9HZHqqTw4BR5u5" type="github">
  <diagram name="Page-1" id="S8VH4VUcq-lYOuVdPDBn">
    <mxGraphModel>
      <root>
        <mxCell id="0" />
        <mxCell id="1" parent="0" />
      </root>
    </mxGraphModel>
  </diagram>
</mxfile>
